<svg version="1" xmlns="http://www.w3.org/2000/svg" width="352" height="352" viewBox="0 0 264.000000 264.000000"><path d="M111 1.1c-9 .9-14.3 2.5-23 6.7C69.1 17.1 55.9 38.7 56 60c0 18.6 5.3 30.8 20 46.3 3 3.2 5.6 6.2 5.8 6.6.1.4-5.1 5.8-11.7 12-15 14-21.7 23.8-26.5 38.3-3.8 11.6-4.1 30.9-.8 43.1 12.2 43.5 56.5 67.2 99.6 53.1 8.8-2.9 21-10 26.9-15.7 1.2-1.2 4.9-4.6 8.2-7.6 32.2-29 43.3-39.9 44.5-43.6 1.9-5.7 2-7.9 1-13.1-1.8-8.5-8.9-15.2-18.2-16.9-4.8-.9-13.4 1.7-17.3 5.2-11.1 10-14.6 13.2-19.5 17.7-6.4 5.9-22.5 20.6-27.8 25.4-2.1 1.8-6.2 4.5-9.2 6-7.7 3.7-19 3.8-27 .1-7.5-3.5-13.5-9.6-17-17.1-2.5-5.5-2.8-7.4-2.7-14.3.3-11.8 3.3-17.1 17-29.9l10.9-10 2.9 3.4c9.7 11.3 16.3 17 20.9 18.4 12 3.6 24-2.8 27.4-14.6 2.9-9.9.3-16.2-11.8-28.8-2.9-3-5.6-6.1-6-6.8-.6-.9 1.7-3.6 6.9-8.5 15.9-14.6 22.5-27.9 23-45.6.5-19.4-7.1-36.4-21.6-48.6C142.2 4.8 125.7-.4 111 1.1zm16.2 48.8c4 4.3 5.4 8.9 4.4 14.8-.6 3-2.3 5.3-8.7 11.4l-8.1 7.6-4.6-5.1c-2.6-2.8-5.4-5.8-6.3-6.6-.9-.8-2.4-3.6-3.2-6.1-5.6-16.4 14.5-28.5 26.5-16z"/></svg>